<mxfile host="Electron" modified="2024-05-03T19:52:06.841Z" agent="Mozilla/5.0 (Windows NT 10.0; Win64; x64) AppleWebKit/537.36 (KHTML, like Gecko) draw.io/24.2.5 Chrome/120.0.6099.109 Electron/28.1.0 Safari/537.36" etag="Eg5aK7M-fKW2gzgyi3U7" version="24.2.5" type="device">
  <diagram id="ffZdB-jsmwuS5GJ5EUQg" name="Hackaton-LLM">
    <mxGraphModel dx="2626" dy="2020" grid="1" gridSize="10" guides="1" tooltips="1" connect="1" arrows="1" fold="1" page="1" pageScale="1" pageWidth="827" pageHeight="1169" math="0" shadow="0">
      <root>
        <mxCell id="0" />
        <mxCell id="1" parent="0" />
        <mxCell id="xwG69pb6jENjyjtDq_wV-10" style="edgeStyle=orthogonalEdgeStyle;rounded=0;orthogonalLoop=1;jettySize=auto;html=1;entryX=0;entryY=0.5;entryDx=0;entryDy=0;" edge="1" parent="1" source="Rn6bE_cG6sxgZQq8xu_I-1" target="xwG69pb6jENjyjtDq_wV-1">
          <mxGeometry relative="1" as="geometry">
            <Array as="points">
              <mxPoint x="885" y="120" />
            </Array>
          </mxGeometry>
        </mxCell>
        <mxCell id="Rn6bE_cG6sxgZQq8xu_I-1" value="" style="shape=image;verticalLabelPosition=bottom;labelBackgroundColor=default;verticalAlign=top;aspect=fixed;imageAspect=0;image=data:image/png,iVBORw0KGgoAAAANSUhEUgAAAIkAAACJCAYAAAAYJBvJAAAAAXNSR0IArs4c6QAAAARnQU1BAACxjwv8YQUAAAAJcEhZcwAAFxEAABcRAcom8z8AAA1rSURBVHhe7Zx5WxRXFsbni8zMd5j/5gvMt0get6hJzDJmEkVxiyK4IALuoEE248LWzb7bDQ3d0CyNYhCQB7NoNDHEBelu4Mx5b1dhiwUXsLpDw3nzvE8noarr1q3fPffcpfpvZGh2ligUnqapYJiNT/F698wMQ8Gag2TixRTdrLtL6Vc9lFXoFa9zp+d5aPyXCcXGHCRPn72itFwXfZBUSlv2V4jXsTfvq6APdpfQ4MhTxcZbkJy40kYbk8tp+yEnbeIDN+wVrydvTK6grQcdtO2gkzbuLaN7owtBwn/EQVl5zVRU5qbCUpd4Hbi43E0511rpq2PV9NEBx9IgcdZ7aPBOLw0EesTrwD/c7aU2j4+ST9dyl7NESEqr26m3x0/d3d3ideC+Xj813e6kvRkCiXgBrxiSHgOSQCBADx48oNHRUfEacn9/P3V1db0vJN38JT4FSDgcpmAwKF4jDoVCNDQ0RF6v9/0h8fl8ND4+bhwlWksaHh4WSESLSyARaSWQiLQSSERaCSQirQQSkVYCiUgrgUSklUAi0kogEWklkIi0EkhEWgkkIq0EEpFWAolIK4FEpJVAItJKIBFpJZCItBJIRFoJJCKtBBKRVgKJSCuBRKSVQCLSSiARaSWQiLQSSERaCSQirQQSkVYCiUgrgUSk1eKQlCtIQsFJgWQ9aymQTE2+FEjWs6S7EWklkIi0EkhEWgkkIq0EEpFWAolIK4FEpJVAItJKIBFpJZCItBJIRFoJJCKtBBKRVgKJSCuBRKSVQCLSSiARaSWQiLQSSERaCSQirQQSkVYCiUgrgUSklUAi0kogEWklkIi0EkhEWgkkIq0EEpFWAolIK4FEpJVAItJKIBFpJZCItBJIRFoJJCKtBBKRVgKJSCuBRKSVQCLSyjZIurp8NDY2RuFwmILBoHiNOBQK0dDQ0KKQDI39rtjQQOLnL+iiQCBAo6OjNDIyIl5D7uvr4yDQtSAkd4d/pZnp6cUh6VWQdCvjy8Rry+aznQ/JRwcctP3batqZdJR27fp6YUjKatrViX5/d0K5ZxXZqnyr1f19fmp2mZA4acfRevrXv/9D//zH3xeJJFXtfLKfiUMUSQx7vV3U0blKzGWxKuNqNVKLxtY3kQRdTlmVi7ydHitIymn7ISeduNRAl4pb6WJRS8L4XEEzZV9dPbYq42p1zrVWysprop1pVbSVgwSCxYOfnis23oFkA0OyjSEBKInmjy3+n3hpjq479CQb9iwwBD6W66YP95Qa4aYi4Yxy4wZhtAb8dzy9lW1eH7Yq42r3R9zNoKv5MKmEBkfmQfLniym6VX+XMvI9lF3kTSifMT73ZzcbgDjoq2PVdOR8PaXEyUcv1FNSRg19/G3k+p+lVFFWYSedKX63vIngjKseevjoT8XGHCSz7OmZWQpPzySkg6FpKm+6xy2hgjYmV1DGlSbqVMljF3l9sXdvTzcVlLro0yOVKq/bfaqBJqdClmVNFM/OgoooSNaCnC1Dc5BkchKmxv/88KyGp3b7Tr+fisvfhmR6ZsYoWWJrzUAyw1HQ0fzDHCSnv2siH4Z2/ACjJ41i5UCfn4rK3oYkFJ42SpfYEkhsskCSABJIYieBxCYLJAkggSR2EkhsskCSABJIYieBxCYLJAkggSR2EkhsskCSIHK2vIEkkyHp4oeHNRWrnVh2e0Cm5e0TFhFfT4Vt9VQwTK8mQ1TW+GaB79SVJmrv6IrbbjVEk/wSA5LkctrFkDx/iZ3p05ZlXqkn2VjMjKfiCsmj315SBbf2Qmc/FVUGbHNxVYC/M0Cpl1y07WBkb8fuUzWUwdEk82oTnc6LvbPym+lQdr3aKoDrf5FaTQWOfi7bgGWZV2rU3fWaO9R77zHDEp9IFTdI/nj+mnJLergSK9XmHGwK2nrAXgOQ6E0/2NcRV6syRF1/XvnsMa7joJSLLgrc/9Wo3dgqLpAggSttHKRPDleqXU/Y/YTWFnmoNjp6C56xDS+ujrp+ZBugRRnfwwAR9YcdZAAFm4N+fhLZhxpLxQUS38BP9E16HW3ZV8E366TkjFq6WNxCl6+3Uu73repzvRj3G22rYxYyjj+Z20g7OO8BLJ9wVL5eM0AvJ4NGTcdGMYfkwY/PVGg0909+fbyaquo86p2eXrjHT/38ORDooTtr3IH+HnW/0cb7LlbHLuR2j0/tutvOjW0z1+nOtFpq73lIszwgiJViCskfz6co56afu5bIJmWQX1zqVpWjho5qiOqn+uZOulDUonaTWb2akOjOYuPerpW7qdPXpd5xwb2jcVQ3dqiHjmOszjWNIf3VWy4e1kfejzmUXcd16qRNHJ2/PX+bRh4+M2rdfsUMkmAoTLXuYfoytUZFEPTXZ3gE4PN1qxfRzUkoRJTrjjb6/GiVumHAtBaNe0u70MDDcp9qGLj3AY4sRWVu2rC3grZYnBPtTTysTz5dRx4ebmPu54bDTV+fqOa/YVe+g85e89GzPyeN2rdXMYFklv/pvfeL2r2+ZR8SLielnKunVrdXdTEmICYkN51ttPNYtUrOtvMQci0adXAip/EdSL7n6AJAtlmcE23UzQGOHp6OLlVneEMQL1R9lhLJT3BMGQ8OQmH7h8UxgeTHRxOUWdChMnDcQNKpGnLU4QX0yOxkNCQIvQ0cPnM4KTuT30JnC9amEUWvc+tX3Y1RB31877VNHao7OWNxTrRxfmGpS+3Mx/mIxmh0xy81qJHUZo5U/z1WSx19D42nYJ9sh2Ti+Ws1uYWZRySrX6ZWUWEJ96Xz1lEAC1qUadx0j58/17L5HnGv8xuK+T5uNxvvX1uey0Yjm19nlfUe2pdZpxokQDlwtoXuj0d+V8Qu2QrJ9PQsNXSM0s7jPNxlQD7hEIiErI1DbHQeAqNFuNt95DLs5qx9zRv3yfZyXhZdFyqJN8DxdBrHWZ3PVnXFxigHa1NIgL+vcKvuGlF7Kw8Szl3rot8n7MtPbIXk7vAT7jebFdHog4+eb6D6ls63ADEro6KmnU7wmB/j/pOXm9aFcb9Yna7hEY0Cw6gTs17w+yBnC5rpOOcuVuebxt/PF7ZQk8ur8hOsT53n0aFaEuDGueNIlXobE+s8dsg2SPAucWZBp5owQza+O72GSqrbuQLeTlRRGWgBmBzawpm5mhldJ0bD+Ywf4A1O1N+BhF3G9YXuGfVndb5pJLoY2TiN+SY0QuQnqRcb1LmI4t+c5CS31575E1sgwapkcWVAFQ7+goezV27cVmF1/n4OM5Jcvn6bj0XFRaab14MxFbDjcCUPXy0g4ZwDPxwESFCHVueb3szfg0lJ5COABOcjR6lr7qBdJyPdDmBJy3HRyMP3z09sgcTVPa4ybEQRLOBhmb6Nh2oLbfhB5dQ1d6qpeUwy2W38zka8bHX9hYyu5hIPWzEZZjaWuTrh/3a1+Sjvpuutc6yul321SY10kJuYdYzzAcpNp5s+VWtkWAJxqMnMZxOvjSe1Mr03JIOjTygpo4E2JZerdZkD2bUKgPmJ6kI2M3s7jO9TLTSOXu49RN/7QlbHGv9udU0Y9TtnjkJoeAAG514oao10SwzK50c54rTcV3tuVqr3guTJ7y/VT1Vs2Veuwtv/OATerDRCKXv+zc939E3bYWxXxGQVRgFt3MpibVwLD8WqLIvZqi5MRx/X6e22vK45SkLkcbV71QSbCSCiSavbR6kX3uQnezObyH/30dyvBCxXK4Zk8nWYbtUNqmEu+tpPDzspl0MpCrtQNxNL47qlVW0q80cFpXESF1PzNbDm4qj1kH+JUXOpRnRoY9Cx6mt57WhzOdCNmV0YjAlKBye1e05Ffm4ToKTneWj85wnj6S1PK4IEv13R6hujb9LrFa2YyDme06DoBslWNx5Lo2IwDDxX0KLWODYmY2IptsY10L1iphjh3qpcKzWSUQyH95yqUes6Vtc3HSmHQzUQc+FQ/SAifyJv+W8aEuHIaKmgok9tqVyuVgTJ3dGndORiqxHOHLT/dK2aD5m/LhMvAxIsHCIpROKMJBpzBrE0rvF5SiUnmrfVw7Eq10oNSJpdXjqYXadAtLq+abMcmHeKLgeiESbczuY3qxEVBhVfpNZQg2d02Ru0lw3Jr7+9oIs3/KqAAAR5SDmP77EvQk0Vq3D3F5hbD9ZBrvDQOvdaC4fq2DqHr5F3q3WucViWaYXG9+FXmrDwiS7c6vqmUY78ktuRKD6vHCoicTeEbslc30nKaKTA/cfG01yalgXJS7UjfXBu+R8XzsprZmKxYzySyP2VRj8embr2clIXY/M18GCw5GBVFjus7kdzL242jrM632O4sNRNX3FjxhwLRqEnv2unR09fGE9VryVDMsOZsS/wE+053aimfs0wmJReSynnG+jw2fq/3ufq6UicjWtalsUGW11vIVudD+Nv+zNr1ZYCNGqAgh4gn/OTV69DxtNdXEuGBO+15N7qUS8eRSCJJExIWsWr3HhOxvOCNyaXcWSpXfJs7JIhCQZnqKr1Pu3kL0cUMcfg4sSyCc6xy230eIldzrJykhevghQYekwt3jGVJde3D4sTzHhurb4HNPbzH7TUubVlQSJanxJIRFoJJCKNiP4P8a/ab+d/a0wAAAAASUVORK5CYII=;" parent="1" vertex="1">
          <mxGeometry x="862" y="359" width="47" height="47" as="geometry" />
        </mxCell>
        <mxCell id="Rn6bE_cG6sxgZQq8xu_I-2" value="Streamlit Cloud" style="swimlane;whiteSpace=wrap;html=1;" parent="1" vertex="1">
          <mxGeometry x="966" y="40" width="404" height="930" as="geometry" />
        </mxCell>
        <mxCell id="gZQ8tSqltW7CF0mfS30K-14" value="" style="shape=cylinder3;whiteSpace=wrap;html=1;boundedLbl=1;backgroundOutline=1;size=15;" parent="Rn6bE_cG6sxgZQq8xu_I-2" vertex="1">
          <mxGeometry x="170" y="449" width="40" height="60" as="geometry" />
        </mxCell>
        <mxCell id="4P_PxjnaudFyUAkYtxSx-2" value="Profiles Database&lt;br&gt;Chromadb" style="text;strokeColor=none;fillColor=none;align=left;verticalAlign=middle;spacingLeft=4;spacingRight=4;overflow=hidden;points=[[0,0.5],[1,0.5]];portConstraint=eastwest;rotatable=0;whiteSpace=wrap;html=1;" parent="Rn6bE_cG6sxgZQq8xu_I-2" vertex="1">
          <mxGeometry x="170" y="229" width="70" height="50" as="geometry" />
        </mxCell>
        <mxCell id="4P_PxjnaudFyUAkYtxSx-4" value="" style="shape=cylinder3;whiteSpace=wrap;html=1;boundedLbl=1;backgroundOutline=1;size=15;" parent="Rn6bE_cG6sxgZQq8xu_I-2" vertex="1">
          <mxGeometry x="180" y="170.85" width="40" height="50" as="geometry" />
        </mxCell>
        <mxCell id="gZQ8tSqltW7CF0mfS30K-15" value="Projects and Companies about the best profile&lt;div&gt;&lt;br&gt;&lt;/div&gt;&lt;div&gt;Score&amp;nbsp;&lt;/div&gt;&lt;div&gt;status: Accepted - Rejected&lt;/div&gt;" style="text;strokeColor=none;fillColor=none;align=left;verticalAlign=middle;spacingLeft=4;spacingRight=4;overflow=hidden;points=[[0,0.5],[1,0.5]];portConstraint=eastwest;rotatable=0;whiteSpace=wrap;html=1;" parent="Rn6bE_cG6sxgZQq8xu_I-2" vertex="1">
          <mxGeometry x="230" y="317.5" width="160" height="85" as="geometry" />
        </mxCell>
        <mxCell id="gZQ8tSqltW7CF0mfS30K-41" value="Dashboard - candidates" style="sketch=0;aspect=fixed;html=1;points=[];align=center;image;fontSize=12;image=img/lib/mscae/App_Services.svg;" parent="Rn6bE_cG6sxgZQq8xu_I-2" vertex="1">
          <mxGeometry x="54" y="449" width="60" height="60" as="geometry" />
        </mxCell>
        <mxCell id="4P_PxjnaudFyUAkYtxSx-3" value="" style="edgeStyle=orthogonalEdgeStyle;rounded=0;orthogonalLoop=1;jettySize=auto;html=1;exitX=0;exitY=0.5;exitDx=0;exitDy=0;exitPerimeter=0;" parent="Rn6bE_cG6sxgZQq8xu_I-2" source="gZQ8tSqltW7CF0mfS30K-14" target="gZQ8tSqltW7CF0mfS30K-41" edge="1">
          <mxGeometry relative="1" as="geometry">
            <mxPoint x="80" y="479" as="targetPoint" />
            <mxPoint x="219" y="479" as="sourcePoint" />
          </mxGeometry>
        </mxCell>
        <mxCell id="gZQ8tSqltW7CF0mfS30K-2" value="HADA Candidate finder" style="sketch=0;aspect=fixed;html=1;points=[];align=center;image;fontSize=12;image=img/lib/mscae/App_Services.svg;" parent="Rn6bE_cG6sxgZQq8xu_I-2" vertex="1">
          <mxGeometry x="54" y="309" width="60" height="60" as="geometry" />
        </mxCell>
        <mxCell id="gZQ8tSqltW7CF0mfS30K-8" value="" style="endArrow=classic;html=1;rounded=0;entryX=0.588;entryY=-0.017;entryDx=0;entryDy=0;entryPerimeter=0;exitX=0.386;exitY=1.067;exitDx=0;exitDy=0;exitPerimeter=0;" parent="Rn6bE_cG6sxgZQq8xu_I-2" source="4P_PxjnaudFyUAkYtxSx-2" target="gZQ8tSqltW7CF0mfS30K-2" edge="1">
          <mxGeometry width="50" height="50" relative="1" as="geometry">
            <mxPoint x="188" y="237" as="sourcePoint" />
            <mxPoint x="142" y="239" as="targetPoint" />
            <Array as="points">
              <mxPoint x="197" y="309" />
            </Array>
          </mxGeometry>
        </mxCell>
        <mxCell id="4P_PxjnaudFyUAkYtxSx-12" value="" style="edgeStyle=orthogonalEdgeStyle;rounded=0;orthogonalLoop=1;jettySize=auto;html=1;exitX=1;exitY=0.5;exitDx=0;exitDy=0;entryX=0;entryY=0;entryDx=0;entryDy=30;entryPerimeter=0;" parent="Rn6bE_cG6sxgZQq8xu_I-2" source="SBZ-VZubGEYWGD4AiZ3G-1" target="4P_PxjnaudFyUAkYtxSx-4" edge="1">
          <mxGeometry relative="1" as="geometry">
            <mxPoint x="174" y="189" as="targetPoint" />
            <mxPoint x="84" y="199" as="sourcePoint" />
          </mxGeometry>
        </mxCell>
        <mxCell id="xwG69pb6jENjyjtDq_wV-7" style="edgeStyle=orthogonalEdgeStyle;rounded=0;orthogonalLoop=1;jettySize=auto;html=1;exitX=0.5;exitY=1;exitDx=0;exitDy=0;" edge="1" parent="Rn6bE_cG6sxgZQq8xu_I-2" source="SBZ-VZubGEYWGD4AiZ3G-1">
          <mxGeometry relative="1" as="geometry">
            <mxPoint x="494" y="150" as="targetPoint" />
            <Array as="points">
              <mxPoint x="84" y="280" />
              <mxPoint x="494" y="280" />
            </Array>
          </mxGeometry>
        </mxCell>
        <mxCell id="SBZ-VZubGEYWGD4AiZ3G-1" value="" style="shape=image;verticalLabelPosition=bottom;labelBackgroundColor=default;verticalAlign=top;aspect=fixed;imageAspect=0;image=data:image/png,iVBORw0KGgoAAAANSUhEUgAAAHAAAABhCAMAAAA5tNVHAAAAAXNSR0IArs4c6QAAAARnQU1BAACxjwv8YQUAAAHXUExURff39/7+/vj4+Pn5+f39/fr6+v////b29vz8/PHx8cnJyaioqJiYmI+Pj42NjZCQkJqamq2trdDQ0Pv7++/v76Ojo1VVVTU1NSoqKikpKSgoKCsrKzk5OWBgYLOzs729vVdXVyMjIycnJy0tLS8vLzAwMCwsLCUlJWdnZ8/Pz5ubmzExMSQkJDw8PLS0tKCgoDMzM7q6uri4uD8/P9HR0eXl5UdHRyYmJjIyMiIiImJiYvT09C4uLre3t1tbW3d3d0ZGRubm5qurq8jIyImJiaqqqnp6eiEhIZ2dnXh4eD09PU5OTk1NTUxMTDo6OoaGhunp6efn5+jo6Gtra3FxcW9vb/Pz8/X19WZmZm1tbWpqaiAgINra2lBQUNjY2E9PT9fX16Kiotzc3NXV1d3d3VJSUlFRUZycnNnZ2Z+fn9/f31NTUxsbG3Jycs7OzkhISEtLS9PT09LS0qenp0pKSsrKyrW1tcTExOzs7M3NzdbW1mRkZLy8vKysrElJSa6urkNDQ5mZmR8fH1lZWbGxsWFhYcvLy7u7u4iIiB4eHurq6szMzMfHx6SkpFRUVF1dXfDw8IyMjG5ubuvr6zY2NsLCwqampkVFRVxcXH19fX5+fnt7ewAAABSxWjUAAACddFJOU////////////////////////////////////////////////////////////////////////////////////////////////////////////////////////////////////////////////////////////////////////////////////////////////////////////////wDL/LxMAAAACXBIWXMAABcRAAAXEQHKJvM/AAAGkElEQVRoQ71aS3YiOwztESvgsA6mNcqIPbCADHsRZJScw6afrr5XtitJJ/B0XdbPlEq2XFDAn8P/TH8ORybRHt6YNODB2xMpYxw1Q2GId7xfPp5Ab5e7hrSED38snOByO2/PofPpggjWMKVI7/0mjmfRtl0lSwlUGb6dJVxGhPCow2g7XzROZPgW6QnLUSH8ikvn/F1ztCp9T3tSaL/lSdv5ngFfb+ZGL4c113/JIQa7atnIGsqEql8oBRd97E+4CUzbxar0cDzFOKWm/Jj0FH4qP7YXz/Bu3vQ7hfZTHpTKdnu1DC8w0RhWf8pVSsUElA3upYeP0NURR7F/5WBhaj5ZRM3wZSt/Eg/8CTeJD+nfkOERAY3KBSJN2fd16d1hFFYJSBmqFV3ITiyDvtLTIJx8EC1DDTiT2swhvbXS49gxBAOFEywy/Evm8qcaNBmKZisscpRDpL9tDasjXtQtolkLBpotTmHhDIl8tI8yZrYyTZS2EHwsDdaiyTWEPd6fk0EyLfsydUpbCD7WdQ8+ZHg7nU5ygKEHUnGLNTOCIDWTcreUQ08vUXMNLb8P/ygn9OpcJVXKYvSqaHYzsEVJdN8HmaGrHxJfLGhOJRmFc7RPFlPTeJUI0qxKcw0R0D7KaROSV7BChurQXHFZOaQ0ZkqZoeqqFkjElWpfBkYw7101GEOGbQ1NRYZ78OvVNmJgzgmIoDHmNcxB1TlIhD3lCSTGKMtQyrLWUOOvM+yMYS1l7sgjyJR4H+oM86hHwqu0rWFmaK1fbsHavwDdnCEMn09pC9TFlAPWyNGqdF00EK0pnI0YxeADskpoDUXnNdSX4lgm/c9oVRr3UmQYA+7XJHsgcKzFEcxMHtew4pv/cJSnKSf98Cowzw6qW6NVac1wZigh9cMxCBHDbrBG2gokCpYZanzxYoBQi+gvdJZKygESm9Kq1OOLWlUqgw8XTRseRHTHPtaiKTmHn+9DPIVrzHlWO0jcQavSmtKqUoAeciyimqNTnoY9hLBcw+08ZEgPqtsp17FAomHoCK1KJb5vfAuYw3Id4dupnH2QeNj7TGNVajCGHC3kMkcfFnxEdZ4hfabRs/Y1BIZaJc8S2QZMa+jvh7GGMQ7wdZSOcnT2faz2oRg0wxzkwO5wf60jYG0n+iDEHA77cF5DQGYVThzrdfwqpmB3H9IYgbH0n7e/1zJPIHHCYg3FslxDzRDDMeBkXwl+HtPlJo77MN8PYwBB7jfqFf+tvTcC1mYM4pShxWtraJCx+r2mXh72BTsZs9Dw832o5uoMna2wzDCqVEd4R9+j9j0hl7KmHGHNsdqHtPETtiPUN8Q73t8vgHYEeY04c5Qj53DYh+OU9nrhq3k9+SeekW7vNEqh3Rf70LtYP8uvXfdNr9ivxq42RK9kH+hYraGcolVp5CcHzaexN9x8QXC66PL2QidJYdqH+rJhSqk+Y787ogaIUtlO4ufBwJShXXDPsOVHdsCvUL3aXJFjk7sfD1X0d4uaUs8Q3V5+2g73KKYk1fU0QyHY2WIOhwxpWyA/rzuvl/AAhw/zFWGwvuDK4xKtSq2G0GoN7/Z9DmhYP8PhclUnepOMrh80qsSv15C+3FnEQyf9iiSDHEZoVWrxM0MbQVRXmoJiSTzAgW6ZYX+3oFZGe3WJnlU0OcoVsqJV6d4+JFhbgi/HWGgsRgS+06hqbh8VIHEGiyQ3rO+lcg3Ld3xCMZcGkNiwWkMNaQFz3AokziARsCZY3Us1Pq1hdMrTwLBGWkcTpwxVnZ6eHCTOqC5gbUCrUp1STbhVKYm/gTFJSUN+r0oD1lyaQeKEVqXf2IftbCTOIJGVcQ1xp7EZrjEEEgvFXApUV2hVWlPatkVI2jWhsBYXmDOEwQMCzvZAImMWQvQM+29PHPARIHHKUIsGNcSDFNW5kDKjup0BLcP6DfgqqnhzWAqT8vnpC9bsd3tE8N+A/Ws1/FsCbu2aMCmpOtuDN3xPoA2f32UNX0VEzO12EcPD6ehPKHJ+XIRkGBlL1NPL40meQ/z09k8F6ei/GM8gnBdt0z+46P9p7OFEj+cRPpR7wP5/GhOf0PQjrmVYhYr2FPIHOckQ8eK7gyQoaniA4Jr/Q8kyxKzioVadtZ44HiLIM0c+gtmUSsTj5SQerVN0cfxWAD9fscH9thQBMa/3y9vbB9rjALpIdjqLGqUCIuSzyCOg44B6EWjW0TGocSxMfERzGNMqTQQLMfigBt8xB28Ww+HwH0OycFPb6RA4AAAAAElFTkSuQmCC;" parent="Rn6bE_cG6sxgZQq8xu_I-2" vertex="1">
          <mxGeometry x="53" y="169" width="62" height="53.7" as="geometry" />
        </mxCell>
        <mxCell id="SBZ-VZubGEYWGD4AiZ3G-2" value="Batch Pre-Process Profiles" style="text;strokeColor=none;fillColor=none;align=left;verticalAlign=middle;spacingLeft=4;spacingRight=4;overflow=hidden;points=[[0,0.5],[1,0.5]];portConstraint=eastwest;rotatable=0;whiteSpace=wrap;html=1;" parent="Rn6bE_cG6sxgZQq8xu_I-2" vertex="1">
          <mxGeometry x="34" y="229" width="120" height="40" as="geometry" />
        </mxCell>
        <mxCell id="xwG69pb6jENjyjtDq_wV-6" style="edgeStyle=orthogonalEdgeStyle;rounded=0;orthogonalLoop=1;jettySize=auto;html=1;entryX=0.5;entryY=0;entryDx=0;entryDy=0;" edge="1" parent="Rn6bE_cG6sxgZQq8xu_I-2" source="xwG69pb6jENjyjtDq_wV-1" target="SBZ-VZubGEYWGD4AiZ3G-1">
          <mxGeometry relative="1" as="geometry" />
        </mxCell>
        <mxCell id="xwG69pb6jENjyjtDq_wV-1" value="1. File uploader (PDF)" style="rounded=0;whiteSpace=wrap;html=1;" vertex="1" parent="Rn6bE_cG6sxgZQq8xu_I-2">
          <mxGeometry x="38" y="50" width="230" height="60" as="geometry" />
        </mxCell>
        <mxCell id="xwG69pb6jENjyjtDq_wV-3" value="" style="image;aspect=fixed;html=1;points=[];align=center;fontSize=12;image=img/lib/azure2/general/Folder_Website.svg;" vertex="1" parent="Rn6bE_cG6sxgZQq8xu_I-2">
          <mxGeometry x="41" y="60.230000000000004" width="48" height="39.53" as="geometry" />
        </mxCell>
        <mxCell id="xwG69pb6jENjyjtDq_wV-11" value="Dashboard - Interview" style="sketch=0;aspect=fixed;html=1;points=[];align=center;image;fontSize=12;image=img/lib/mscae/App_Services.svg;" vertex="1" parent="Rn6bE_cG6sxgZQq8xu_I-2">
          <mxGeometry x="64" y="810" width="60" height="60" as="geometry" />
        </mxCell>
        <mxCell id="xwG69pb6jENjyjtDq_wV-22" style="edgeStyle=orthogonalEdgeStyle;rounded=0;orthogonalLoop=1;jettySize=auto;html=1;" edge="1" parent="Rn6bE_cG6sxgZQq8xu_I-2" source="gZQ8tSqltW7CF0mfS30K-1" target="xwG69pb6jENjyjtDq_wV-16">
          <mxGeometry relative="1" as="geometry">
            <Array as="points">
              <mxPoint x="84" y="750" />
              <mxPoint x="248" y="750" />
            </Array>
          </mxGeometry>
        </mxCell>
        <mxCell id="gZQ8tSqltW7CF0mfS30K-1" value="HADA Interview Analyser" style="sketch=0;aspect=fixed;html=1;points=[];align=center;image;fontSize=12;image=img/lib/mscae/App_Services.svg;" parent="Rn6bE_cG6sxgZQq8xu_I-2" vertex="1">
          <mxGeometry x="54" y="663" width="60" height="60" as="geometry" />
        </mxCell>
        <mxCell id="gZQ8tSqltW7CF0mfS30K-20" value="" style="shape=image;verticalLabelPosition=bottom;labelBackgroundColor=default;verticalAlign=top;aspect=fixed;imageAspect=0;image=data:image/png,iVBORw0KGgoAAAANSUhEUgAAAIkAAACJCAYAAAAYJBvJAAAAAXNSR0IArs4c6QAAAARnQU1BAACxjwv8YQUAAAAJcEhZcwAAFxEAABcRAcom8z8AAA1rSURBVHhe7Zx5WxRXFsbni8zMd5j/5gvMt0get6hJzDJmEkVxiyK4IALuoEE248LWzb7bDQ3d0CyNYhCQB7NoNDHEBelu4Mx5b1dhiwUXsLpDw3nzvE8noarr1q3fPffcpfpvZGh2ligUnqapYJiNT/F698wMQ8Gag2TixRTdrLtL6Vc9lFXoFa9zp+d5aPyXCcXGHCRPn72itFwXfZBUSlv2V4jXsTfvq6APdpfQ4MhTxcZbkJy40kYbk8tp+yEnbeIDN+wVrydvTK6grQcdtO2gkzbuLaN7owtBwn/EQVl5zVRU5qbCUpd4Hbi43E0511rpq2PV9NEBx9IgcdZ7aPBOLw0EesTrwD/c7aU2j4+ST9dyl7NESEqr26m3x0/d3d3ideC+Xj813e6kvRkCiXgBrxiSHgOSQCBADx48oNHRUfEacn9/P3V1db0vJN38JT4FSDgcpmAwKF4jDoVCNDQ0RF6v9/0h8fl8ND4+bhwlWksaHh4WSESLSyARaSWQiLQSSERaCSQirQQSkVYCiUgrgUSklUAi0kogEWklkIi0EkhEWgkkIq0EEpFWAolIK4FEpJVAItJKIBFpJZCItBJIRFoJJCKtBBKRVgKJSCuBRKSVQCLSSiARaSWQiLQSSERaCSQirQQSkVYCiUgrgUSk1eKQlCtIQsFJgWQ9aymQTE2+FEjWs6S7EWklkIi0EkhEWgkkIq0EEpFWAolIK4FEpJVAItJKIBFpJZCItBJIRFoJJCKtBBKRVgKJSCuBRKSVQCLSSiARaSWQiLQSSERaCSQirQQSkVYCiUgrgUSklUAi0kogEWklkIi0EkhEWgkkIq0EEpFWAolIK4FEpJVAItJKIBFpJZCItBJIRFoJJCKtBBKRVgKJSCuBRKSVQCLSyjZIurp8NDY2RuFwmILBoHiNOBQK0dDQ0KKQDI39rtjQQOLnL+iiQCBAo6OjNDIyIl5D7uvr4yDQtSAkd4d/pZnp6cUh6VWQdCvjy8Rry+aznQ/JRwcctP3batqZdJR27fp6YUjKatrViX5/d0K5ZxXZqnyr1f19fmp2mZA4acfRevrXv/9D//zH3xeJJFXtfLKfiUMUSQx7vV3U0blKzGWxKuNqNVKLxtY3kQRdTlmVi7ydHitIymn7ISeduNRAl4pb6WJRS8L4XEEzZV9dPbYq42p1zrVWysprop1pVbSVgwSCxYOfnis23oFkA0OyjSEBKInmjy3+n3hpjq479CQb9iwwBD6W66YP95Qa4aYi4Yxy4wZhtAb8dzy9lW1eH7Yq42r3R9zNoKv5MKmEBkfmQfLniym6VX+XMvI9lF3kTSifMT73ZzcbgDjoq2PVdOR8PaXEyUcv1FNSRg19/G3k+p+lVFFWYSedKX63vIngjKseevjoT8XGHCSz7OmZWQpPzySkg6FpKm+6xy2hgjYmV1DGlSbqVMljF3l9sXdvTzcVlLro0yOVKq/bfaqBJqdClmVNFM/OgoooSNaCnC1Dc5BkchKmxv/88KyGp3b7Tr+fisvfhmR6ZsYoWWJrzUAyw1HQ0fzDHCSnv2siH4Z2/ACjJ41i5UCfn4rK3oYkFJ42SpfYEkhsskCSABJIYieBxCYLJAkggSR2EkhsskCSABJIYieBxCYLJAkggSR2EkhsskCSIHK2vIEkkyHp4oeHNRWrnVh2e0Cm5e0TFhFfT4Vt9VQwTK8mQ1TW+GaB79SVJmrv6IrbbjVEk/wSA5LkctrFkDx/iZ3p05ZlXqkn2VjMjKfiCsmj315SBbf2Qmc/FVUGbHNxVYC/M0Cpl1y07WBkb8fuUzWUwdEk82oTnc6LvbPym+lQdr3aKoDrf5FaTQWOfi7bgGWZV2rU3fWaO9R77zHDEp9IFTdI/nj+mnJLergSK9XmHGwK2nrAXgOQ6E0/2NcRV6syRF1/XvnsMa7joJSLLgrc/9Wo3dgqLpAggSttHKRPDleqXU/Y/YTWFnmoNjp6C56xDS+ujrp+ZBugRRnfwwAR9YcdZAAFm4N+fhLZhxpLxQUS38BP9E16HW3ZV8E366TkjFq6WNxCl6+3Uu73repzvRj3G22rYxYyjj+Z20g7OO8BLJ9wVL5eM0AvJ4NGTcdGMYfkwY/PVGg0909+fbyaquo86p2eXrjHT/38ORDooTtr3IH+HnW/0cb7LlbHLuR2j0/tutvOjW0z1+nOtFpq73lIszwgiJViCskfz6co56afu5bIJmWQX1zqVpWjho5qiOqn+uZOulDUonaTWb2akOjOYuPerpW7qdPXpd5xwb2jcVQ3dqiHjmOszjWNIf3VWy4e1kfejzmUXcd16qRNHJ2/PX+bRh4+M2rdfsUMkmAoTLXuYfoytUZFEPTXZ3gE4PN1qxfRzUkoRJTrjjb6/GiVumHAtBaNe0u70MDDcp9qGLj3AY4sRWVu2rC3grZYnBPtTTysTz5dRx4ebmPu54bDTV+fqOa/YVe+g85e89GzPyeN2rdXMYFklv/pvfeL2r2+ZR8SLielnKunVrdXdTEmICYkN51ttPNYtUrOtvMQci0adXAip/EdSL7n6AJAtlmcE23UzQGOHp6OLlVneEMQL1R9lhLJT3BMGQ8OQmH7h8UxgeTHRxOUWdChMnDcQNKpGnLU4QX0yOxkNCQIvQ0cPnM4KTuT30JnC9amEUWvc+tX3Y1RB31877VNHao7OWNxTrRxfmGpS+3Mx/mIxmh0xy81qJHUZo5U/z1WSx19D42nYJ9sh2Ti+Ws1uYWZRySrX6ZWUWEJ96Xz1lEAC1qUadx0j58/17L5HnGv8xuK+T5uNxvvX1uey0Yjm19nlfUe2pdZpxokQDlwtoXuj0d+V8Qu2QrJ9PQsNXSM0s7jPNxlQD7hEIiErI1DbHQeAqNFuNt95DLs5qx9zRv3yfZyXhZdFyqJN8DxdBrHWZ3PVnXFxigHa1NIgL+vcKvuGlF7Kw8Szl3rot8n7MtPbIXk7vAT7jebFdHog4+eb6D6ls63ADEro6KmnU7wmB/j/pOXm9aFcb9Yna7hEY0Cw6gTs17w+yBnC5rpOOcuVuebxt/PF7ZQk8ur8hOsT53n0aFaEuDGueNIlXobE+s8dsg2SPAucWZBp5owQza+O72GSqrbuQLeTlRRGWgBmBzawpm5mhldJ0bD+Ywf4A1O1N+BhF3G9YXuGfVndb5pJLoY2TiN+SY0QuQnqRcb1LmI4t+c5CS31575E1sgwapkcWVAFQ7+goezV27cVmF1/n4OM5Jcvn6bj0XFRaab14MxFbDjcCUPXy0g4ZwDPxwESFCHVueb3szfg0lJ5COABOcjR6lr7qBdJyPdDmBJy3HRyMP3z09sgcTVPa4ybEQRLOBhmb6Nh2oLbfhB5dQ1d6qpeUwy2W38zka8bHX9hYyu5hIPWzEZZjaWuTrh/3a1+Sjvpuutc6yul321SY10kJuYdYzzAcpNp5s+VWtkWAJxqMnMZxOvjSe1Mr03JIOjTygpo4E2JZerdZkD2bUKgPmJ6kI2M3s7jO9TLTSOXu49RN/7QlbHGv9udU0Y9TtnjkJoeAAG514oao10SwzK50c54rTcV3tuVqr3guTJ7y/VT1Vs2Veuwtv/OATerDRCKXv+zc939E3bYWxXxGQVRgFt3MpibVwLD8WqLIvZqi5MRx/X6e22vK45SkLkcbV71QSbCSCiSavbR6kX3uQnezObyH/30dyvBCxXK4Zk8nWYbtUNqmEu+tpPDzspl0MpCrtQNxNL47qlVW0q80cFpXESF1PzNbDm4qj1kH+JUXOpRnRoY9Cx6mt57WhzOdCNmV0YjAlKBye1e05Ffm4ToKTneWj85wnj6S1PK4IEv13R6hujb9LrFa2YyDme06DoBslWNx5Lo2IwDDxX0KLWODYmY2IptsY10L1iphjh3qpcKzWSUQyH95yqUes6Vtc3HSmHQzUQc+FQ/SAifyJv+W8aEuHIaKmgok9tqVyuVgTJ3dGndORiqxHOHLT/dK2aD5m/LhMvAxIsHCIpROKMJBpzBrE0rvF5SiUnmrfVw7Eq10oNSJpdXjqYXadAtLq+abMcmHeKLgeiESbczuY3qxEVBhVfpNZQg2d02Ru0lw3Jr7+9oIs3/KqAAAR5SDmP77EvQk0Vq3D3F5hbD9ZBrvDQOvdaC4fq2DqHr5F3q3WucViWaYXG9+FXmrDwiS7c6vqmUY78ktuRKD6vHCoicTeEbslc30nKaKTA/cfG01yalgXJS7UjfXBu+R8XzsprZmKxYzySyP2VRj8embr2clIXY/M18GCw5GBVFjus7kdzL242jrM632O4sNRNX3FjxhwLRqEnv2unR09fGE9VryVDMsOZsS/wE+053aimfs0wmJReSynnG+jw2fq/3ufq6UicjWtalsUGW11vIVudD+Nv+zNr1ZYCNGqAgh4gn/OTV69DxtNdXEuGBO+15N7qUS8eRSCJJExIWsWr3HhOxvOCNyaXcWSpXfJs7JIhCQZnqKr1Pu3kL0cUMcfg4sSyCc6xy230eIldzrJykhevghQYekwt3jGVJde3D4sTzHhurb4HNPbzH7TUubVlQSJanxJIRFoJJCKNiP4P8a/ab+d/a0wAAAAASUVORK5CYII=;" parent="Rn6bE_cG6sxgZQq8xu_I-2" vertex="1">
          <mxGeometry x="-104" y="671.75" width="47" height="47" as="geometry" />
        </mxCell>
        <mxCell id="gZQ8tSqltW7CF0mfS30K-21" value="Interviewed" style="text;strokeColor=none;fillColor=none;align=left;verticalAlign=middle;spacingLeft=4;spacingRight=4;overflow=hidden;points=[[0,0.5],[1,0.5]];portConstraint=eastwest;rotatable=0;whiteSpace=wrap;html=1;" parent="Rn6bE_cG6sxgZQq8xu_I-2" vertex="1">
          <mxGeometry x="-119.12" y="718.75" width="77.25" height="31.92" as="geometry" />
        </mxCell>
        <mxCell id="Cl_PxcEXx11ALv3Qzuil-1" value="" style="endArrow=classic;startArrow=classic;html=1;rounded=0;exitX=1.154;exitY=0.447;exitDx=0;exitDy=0;exitPerimeter=0;" parent="Rn6bE_cG6sxgZQq8xu_I-2" source="gZQ8tSqltW7CF0mfS30K-20" target="gZQ8tSqltW7CF0mfS30K-1" edge="1">
          <mxGeometry width="50" height="50" relative="1" as="geometry">
            <mxPoint x="-27" y="692.75" as="sourcePoint" />
            <mxPoint x="115.75" y="692.5" as="targetPoint" />
          </mxGeometry>
        </mxCell>
        <mxCell id="gZQ8tSqltW7CF0mfS30K-40" value="" style="endArrow=classic;startArrow=classic;html=1;rounded=0;entryX=1;entryY=0;entryDx=0;entryDy=37.50000000000001;entryPerimeter=0;exitX=1.104;exitY=0.263;exitDx=0;exitDy=0;exitPerimeter=0;" parent="Rn6bE_cG6sxgZQq8xu_I-2" source="gZQ8tSqltW7CF0mfS30K-1" target="gZQ8tSqltW7CF0mfS30K-14" edge="1">
          <mxGeometry width="50" height="50" relative="1" as="geometry">
            <mxPoint x="460" y="599" as="sourcePoint" />
            <mxPoint x="510" y="549" as="targetPoint" />
            <Array as="points">
              <mxPoint x="264" y="680" />
              <mxPoint x="264" y="600" />
              <mxPoint x="264" y="487" />
            </Array>
          </mxGeometry>
        </mxCell>
        <mxCell id="xwG69pb6jENjyjtDq_wV-17" style="edgeStyle=orthogonalEdgeStyle;rounded=0;orthogonalLoop=1;jettySize=auto;html=1;" edge="1" parent="Rn6bE_cG6sxgZQq8xu_I-2" source="xwG69pb6jENjyjtDq_wV-16" target="xwG69pb6jENjyjtDq_wV-11">
          <mxGeometry relative="1" as="geometry" />
        </mxCell>
        <mxCell id="xwG69pb6jENjyjtDq_wV-16" value="" style="shape=cylinder3;whiteSpace=wrap;html=1;boundedLbl=1;backgroundOutline=1;size=15;" vertex="1" parent="Rn6bE_cG6sxgZQq8xu_I-2">
          <mxGeometry x="228" y="770" width="40" height="60" as="geometry" />
        </mxCell>
        <mxCell id="xwG69pb6jENjyjtDq_wV-19" value="Collection&lt;br&gt;qualifications_candidate" style="text;html=1;align=center;verticalAlign=middle;resizable=0;points=[];autosize=1;strokeColor=none;fillColor=none;" vertex="1" parent="Rn6bE_cG6sxgZQq8xu_I-2">
          <mxGeometry x="180" y="840" width="150" height="40" as="geometry" />
        </mxCell>
        <mxCell id="xwG69pb6jENjyjtDq_wV-20" value="Collection&lt;br&gt;candidate_rating" style="text;html=1;align=center;verticalAlign=middle;resizable=0;points=[];autosize=1;strokeColor=none;fillColor=none;" vertex="1" parent="Rn6bE_cG6sxgZQq8xu_I-2">
          <mxGeometry x="147" y="508" width="110" height="40" as="geometry" />
        </mxCell>
        <mxCell id="Rn6bE_cG6sxgZQq8xu_I-23" value="Recruiter" style="text;strokeColor=none;fillColor=none;align=left;verticalAlign=middle;spacingLeft=4;spacingRight=4;overflow=hidden;points=[[0,0.5],[1,0.5]];portConstraint=eastwest;rotatable=0;whiteSpace=wrap;html=1;" parent="1" vertex="1">
          <mxGeometry x="856" y="406" width="84.39" height="36" as="geometry" />
        </mxCell>
        <mxCell id="Rn6bE_cG6sxgZQq8xu_I-24" value="Azure OpenAI" style="swimlane;whiteSpace=wrap;html=1;" parent="1" vertex="1">
          <mxGeometry x="1390" y="40" width="370" height="930" as="geometry" />
        </mxCell>
        <mxCell id="Rn6bE_cG6sxgZQq8xu_I-25" value="" style="shape=image;verticalLabelPosition=bottom;labelBackgroundColor=default;verticalAlign=top;aspect=fixed;imageAspect=0;image=data:image/png,iVBORw0KGgoAAAANSUhEUgAAAMcAAADGCAYAAABmWZRjAAAgAElEQVR4Ae2dCXhUVZbH2QUBFdzGDduluxVbx7X1s9XWHtfWbnua6emWth3H9msVQiAJYQ0gOwKygyyiLILIjiA7iiAgS2pLpVLZt8q+J5VUpaqS/8y5yZMiJHmVelWpelWnvi/fq9Sr++q+c8/v3XvPPefcLuAXS4Al0KoEurT6KX/IEmAJgOFgJWAJtCEBhqMNwfji48ZGoNreAFejL67G1+hsCTAcfpR4jb0BC4+XYPXpUjiYED9K2j+XZjj8I1dx1SqbC8O3W3DbZCNGbLMgq9zhx1/jS/taAgyHryXqdj2C4/2tuegaqcHVsXq8tCINB5OqQcMtfgW/BBgOP7aRBEeXERrQ3xWjtLhvpgmLvy9Gld3lx1/mS/tCAgyHL6TYxjVawkGAdI/U4MbxBvxrSw4yyurbKMkfB4MEGA4/tkJrcBAgXUdocGW0Ds8sSsF+U7Ufa8CXViIBhkOJ9GTKtgWHNMzqMVKLX0w3Yf63Raioa5C5Gp/ubAkwHH6UuBwcUi8yYIwe72zOhrnYDp6r+7FBOnhphqODAuvI1z2BQ+pFeo3U4qkFKThgYmtWR2Tsz+8yHH6UbkfgkHqRQZONmHO0CGV1bM3yY9N4dGmGwyMxefeljsIh9SL9Y3R4c30WtHl1cPFUxDvh+6AUw+EDIbZ1CW/hIEh6RGrw5IJkbNNWgNxQeOGwLSn773OGw3+yhRI4pF7ktklGzDxcCEulE64Gnq77sbkuuzTDcZlIfPeBL+AgSK6M0WHo+iz8mFULu7ORLVq+a6J2r8RwtCseZSd9BQcBQivrT3ycjC/Ol6PE6gR3IsraxpPSDIcnUvLyO76EQxpm3RKXgA8PFCC1xM5u8F62i6fFGA5PJeXF9/wBB0HSL7ppmHUi3QprPU/WvWgaj4owHB6Jybsv+QsOAqTbCA0enZeMz8+WoaCKJ+vetVD7pRiO9uWj6Kw/4ZCGWTdOSMD4vflIyLeJybqiCnPhSyTAcFwiDt/+U17nwrtf5ohYDkmZ/XHsM0qHIWszhetJZZ2L10R81IwMh48E6X6ZKlsDkovt2G2owjOLU/0OhzTMevAjM1adKkVOhYPXRNwbxMv3DIeXgmtZjNYfLJUOnM60YvmJEvz50wxcO87QKWC490bXjzdg9G4L4nPrUOdg35OW7dSR/xmOjkirxXdprYF6CRrvk5tH1M48DJ6VhD5RWnSJaAqNdVfcznpP4bh/XJWOXYZKlNXyMKtFs3n8L8PhsaguftHZ0CiGLt+l1mDx8WK8tiodN01MQDcCIoBQuMNHdblvZpKIV88sq+dh1sXm8/gdw+GxqICKOhf0eTZ8panAiO25eGiuGVeMpF4ivtOHT+4gtPk+QoPrxhlEXc9kWmFz8jCrA83N6UDlhGVzNiKrvB5HzNWYe7QIr6/OwHXjDSLdTptK2ZxtJFjOdx+pFWmBvowvR6nVxb5Zco3efJ57jlYE5WpsBJlhL+TUYd3ZMgzbmotfzUpC32idSI4QLErfkXrQouGdUxMx61ChsKSxb1YrDd/iI4ajWSDkDO5oaASNz/cnVmHmoUL8fmU6bo1LQI/IwE6wOwJBu9+N0ODq0Xq8sykHNF+q5xSlLXC49F+GAxC9xPnsWnz2Yxne+yoXj8w1o1+MenuJdgERgVRaPLM4RfSKZM3iV+sSCFs4aA0gvbQee41V+HB/AV5bmY6b4xJA43M55QqJ8xEaDJpixKR9+UgstPE8pBU+wgoOGkXQXIKChpafLME/N2XjgdlJ6D9aLxz5QkLpO2gM6BujwxvrmlxP6hwcaejOSFjAQen/aS6xU1+JiXvz8dLyNNw6yQhKhxMs6xKBBLPnSC0en5+MFSdLUFzjdNePsH4f0nBU2lw4k1mLpd+X4K2N2SDfo6ti9aq1OPkTIEpRevsUI6J2WaDLq+NhFhB66xzk40RRctt0lYjdnYcXl6WBouco9aY/lStUrt1vtE74he3QV4pAqnDuOkKi56C5BFldTmfWYv63xRi6LlOsS/SP0aNbZOB8nNQKTK9RWjz8kRnzjhYhuyJ0N9yhtZ5aR4OYh1JEZcuXquGguQS5Z2/RVGDUjlz8dnGKsDiR4x3PJZQ9FCihw21xRry3JQfnsmtVv68hgUD6Qi5AxgIb9puqsOZUKSZ/U4DRu/PEpkIhAUdtfQNOZViFO8eQtRkYPMvEc4kOWqk86dVoHnLVaD1eWZGGTRcqxOafLRUoWP8n59D8KifO59RhT0KlmHfG7MrDG+uy8MLyNDw814w7PzQK37M7PkzEshMll92KanoOSmiWVloveokPtuTg6YUpuHliGK1L+EH5PQGEvkPDrPtnJ2HqgQKxNnSZFgXwAzI+V9kbkFJSj1OZtUI/Zh0uBOnIX9Zm4rklqcJcT/sy9o9tfZh9c5xRfXDQjZPF6cfsWkw7WIjXV6XjnumJINs8zyWUDZs8BUP6XvdIrXgYvf1FNk6kWTs9LRDpAs0LSqwusSPW9+lWrDlThri9+Xh3czZeXZmOx+eZcc+0RNwwwYA+0TqQidoTPVEVHJQ8uajGiU0XyvGvL3Pw2Lxk3DDeIJ5gPJfoXCgkOOjYNMzS4XdLUrDhbJlfhlkEAY0SyO+LMs2fz60TIQLzjxUhcnsu3lifhecWp+DhOUm4Y0oirh1rEA9LAkHohhfxNKqAgwRCYaYzDhXihWWpuHtaIvqP1vHkOoBDKnc4pPc0zLp3hkksqNJQV+mL2j2zvF70SJTRceqBQlAPRTrw6Dwzfj49UQST0Y68vSXPaB8GlgU1HBllDmzWVODvG7LwyEdm0Ut40h1KjcXHzu9NqH1o+EIT3KPJnnn40oiAhkWGAhsOm6vxyalSRO204L/WZoje4KE5Sbjzw0RQHDwNi2iL6s5o26CCw30uMWlfAZ5fmoY7JhuFQBiKzlEIXygdDbNo/kdbJaz8oVTk8KVehLZLqHU0Ir/aiYQCO742VokNed7fkoM/rUrHE/OTxdzglokJYn926oloTkPX80W9OnqNoICDzGu0792i48XC2Y325B44xiAmTjyXCIxidFSR3L9PykzrIf2idKCn/pxjRdidUIVpBwrwzqZs/MfSVDwwM0k8+K4fZxBD5CuimkBwv06g3wcUjmp7Aw4lVWPY1hw8OCfpJ2tCoJ4UgW4MVf4+jfGHa9BzpAa3TDLiqUUpeHtTtrAi0iIsLRRqLHWI3ZN3cZI8qrk38GKS3JkyCggcycX1WHKiBL//JB13TTGCtvPiYVOQ9xACgniRSWXgGD0GTzfhhaWpeP+rXCw9UYJD5mqxsJZSYkdBtVOsONscjWJLhLwqByK25wZseOQtUJ0OB8Vf/2lNBqg7pTEl9xJBBkUzBNQb9I3S4cbxBrGG9NrqdEzYV4AN58sFCIZ8G/IqHSi1OsU6A7lgkCtGa9uwMRwe2O2KalxizNk/VheQCZa3T5BQLkcPJ1oL6D1Kh2ti9fj1vGT876Yc4YLzZfOwiCCgeA5KVEdZVyQQPGhy8RWGQ0ZSJNTpBwuEXZp7iwD1Fs29AvXYd04z4eWV6Ri104LlP5Tiu1Sr6AlodyjyPiA/NXLz98WutQxHO3BQShvqjmmBqLNs1KH8tG/33qRh0bB49BihEcOih+eY8Z9rMsSwaLu+Ero8G7LKHSitdYkhURMEZEj3z4vhaEeuP2TU4neLU8Q2we02bIDs2aqtkwBBg+4jNKAYlVsnJojF0jc3ZmPh9yXYZ6qGxmITE2TyPyIIyGwu5gbttJevTzEcbUg0u9whNpbvTUmUWfkVyYASsPUaqcGVUVoRn/LcsjRE78rD6jNlOJpiBcmahkPkdvETBP7rENpo8cs/Zjgul4lIdR+3Lx8DxugVKUVYQhWhQVeyGEXrcN+sJPz355mYerAAW3WVMBfZYXM0iB5AshAFAQOtaEDTRwxHC9HQk4ueaHdNTWQw2ugxyTDRNUKDbsPjReLp2ycZ8fSCFLy9MRsff1eM4+lW4WpBcQmUdVGtL4bDreXI1n0spQa/WZjCYBAAkU3uFD0iNegzSosbxyfgnmkmPLs4FZE78rD+fDnOZNeKeITWYpbdRKvKtwxHc7MRGElFdgz9PLMp/1MbT81QHCpRT0CZEXuO0gpnyQGxevzbOAPumWHCXz7LwIzDRWJYRCGa4ZRuk+FohqOw2omYXRZcRfEWIQqGgCCyCYLeUTrhgXrNaD0GTTbi2aWp+GBrrti85mBSjdjyTJWPex9WmuEAxAR82ckSoSShAAZBQD5flNuKMpfQ5HhAjE6YTB+da8afV2eAgvPXni1DvMWGYmvTuoGKpwc+ROLipcIeDnIpoOTLv/44WZU9hgQCuVJcGa0D9QQ3TzBg8AyTmCT/7fNMTDtUiN3GKmjy6kSPQOsG6p0mX1Ref78LazgoeRrtUko7pZIfvxp6DaonhVZSiCVtaH/HFCPun2XC88vSMGybBdQD7jdVw1hoFzHRrTnU+VupQuX6YQsHKQ1t/zVyh0XsXRFUYJCZNLIphQztqzFwrEFkyvj51EQ8Pt+Mv36eiUnfFGD9uXL8kGkVyRt4SOR7JMMWDrK6zP+2SDgUBhIMGhaJuUGUVkSW3TjOICLNHpydhFdWpOO9L3Mw+3AhKNdrYqFdpHqkvTh4EyPfw9DyimEJBwWz7NBV4qE55k6Ny6DegEymNCy6dowBg+ISxNzgmYUpGLImQ+ySuvxkKY6l1gizMqXzIZcKfgVGAmEHh5PS5WRY8YdV6X7f4IXWDa4ao8dNcQn4+bREsf0YxSEPXZeFKfsLsTm+ApTMi3Zk4o1WAgNAe78aVnDQuDy52C6SCVNgvOLhFHmXNqeXpKwV147Vg9I0Dp5pwhPzzQJACrOkje93GSqhzbOJVI/tNQifCx4JhBUctNBHu6pSqKs3YJCliKCibcVumpCAe6eZ8Pi8ZAEBJe2auDcPK0+V4khKjciWTokYhNmUR0bBo/EdqEnYwFFjb8CGc+X4xXSTV2AQTJR6Z8inGYjYmot5x4qwx1gFfb4NuZUOVNhcPok+60Db8Vf9LIGwgIMmtbRPNY33KcDGm16jS0S8yMpNkWjkucuv0JdAyMNBscSJBTaRq7QHbQKjAA7agDEUvU9DX829u8OQhoMW+iyVDrHbzdVKA5ci4sXupAyHd4qmxlIhDQeFXlL2OnKx8LrHkHoahkON+q2oziENR+H/L6KN35uPLsPjGQ5FahKehUMaDtpDjQL5uwxjOMJTvZXdNcMhDZvkjjysUqZpKizNcMhBIZ1nOFSo3sqqzHBIyi93ZDiUaZoKSzMcclBI5xkOFaq3siozHJLyyx0ZDmWapsLSDIccFNJ5hkOF6q2sygyHpPxyR4ZDmaapsDTDIQeFdJ7hUKF6K6sywyEpv9yR4VCmaSoszXDIQSGdZzhUqN7KqsxwSMovd2Q4lGmaCkszHHJQSOcZDhWqt7IqMxyS8ssdGQ5lmqbC0gyHHBTSeYZDheqtrMoMh6T8ckeGQ5mmqbA0wyEHhXSe4VCheiurMsMhKb/ckeFQpmkqLM1wyEEhnWc4VKjeyqrMcEjKL3dkOJRpmgpLMxxyUEjnGQ4VqreyKjMckvLLHRkOZZqmwtIMhxwU0nmGQ4XqrazKDIek/HJHhkOZpqmwNMMhB4V0nuFQoXorqzLDISm/3JHhUKZpKizNcMhBIZ1nOFSo3sqqzHBIyi93ZDiUaZoKSzMcclBI5xkOFaq3siozHJLyyx0ZDmWapsLSDIccFNJ5hkOF6q2sygyHpPxyR4ZDmaapsDTDIQeFdJ7hUKF6K6sywyEpv9yR4VCmaSoszXDIQSGdZzhUqN7KqsxwSMovd2Q4lGmaCkszHHJQSOcZDhWqt7IqMxyS8ssdGQ5lmqbC0gyHHBTSeYZDheqtrMoMh6T8ckeGQ5mmqbA0wyEHhXSe4VCheiurMsMhKb/ckeFQpmkqLM1wyEEhnWc4VKjeyqrMcEjKL3dkOJRpmgpLMxxyUEjnGQ4VqreyKjMckvLLHRkOZZqmwtIMhxwU0nmGQ4XqrazKDIek/HJHhkOZpqmwNMMhB4V0nuFQoXorqzLDISm/3JHhUKZpKizNcMhBIZ1nOFSo3sqqHPpw7MxDl2Hx6CIpubdHhkOZpqmwdEjDUVbrwrITJXhgVhIGTTLi2rF69InSoluEBl2Gx6MLHT2FheFQoXorq3JIw+FwNSK7vB7fpdRgj6ESa06XYsahAozcbsEb67Lw9KIU3Dk1EdeM0ePKaB16jdSiG8FC0LQEh+FQpmkqLB3ScLi3h6sRsNY3oNTqRG6FA+YiO85l1+JYcjV26iux8lQJJu8vwHtbcvD66nQ8Ni8Zt0wyoneUFl0JmOHxWHGyRFzD/br8PnQlEDZwtNeEEjhFNU5kltXDmG/D6QwrDiZVY6u2Aou+L0HMLgvWnSvHkeQaxOfWIbfSAbuzEY3tXZjPqVoCDEcbzdfYCDQ0As6GRlTbG5Bf5YA+34bh23Lx3JIUvPZJOv6xPgtROy34+LtirD5ThoPmamgtdcgoqwfNd1wNbVycP1aFBBiODjQT9RRfG6vw0EdmMdyiyf3VsXrcNNGAQXEJuHdaIh6ek4Tnl6Zi6LpMRG+3YNbhQmyKr8CpzFpYqpyoqHOh1tEAF9HHr6CWAMPRweaprW/AunNluGOKsWkuIlm73CbxPUZq0Sdah2ti9bhhggE/m2LE4BkmPDbXjBdXpOLtzdmI25+P1adKsTexCrp8GyrqGsC8dLAx/Px1hsMLAVfZXJh9pAg3TTBcCogESjtHAqfvaB0GjjPglrgE3D01Ef8+Owm/WZCMP6xKx/CtuZh3rAhfaStwPK0G5mI76Pf41fkSYDi8lHlxjRMjtufi6tF6z9dKWoGGLGH01y1Sg56jtOgfo8f1Yw24LS4Bv5yWKHobGqb97bNMxO7Jw8rTpTicXANdng3ZFQ7U1DeIuZGXt8HF2pEAw9GOcNo7RTOG9LJ6/PnTDPSJ0ikCpK2FSIKme6QWPUdq0TtKh6tG63HDOANum5iAe6Yl4qkFyRiyJgPDtuSIuQ31NhqLDXk0t7G5YHM2MjjtNaLMOYZDRkDtnSZrlrHALhYT6anflpL7/POIpt6GhmhXRGnRN0YnFjJvGN/U49w73YTfLknFmxuyMGFvPlaeKsWBpGokl9gFMO3dE5+7KAGG46IsvHpH5tqTGVb8anaSeMr7HIRWhmJyv0E9DoHTO1qHfjS/GavHzRMThBHhvpkmvLg8De9/lYuPvy3GFm2FqH9WuQNONj1fogMMxyXi8O4fWgvZZajEbZMS0DWyA/5aXii+HBhtnZfmNlQ/Ac4oHfrH6DBgjF6YoQdPN+GJecl4fU0GYr/Ox2dny/FdWo1Y26FhWj2tlIbZi+HwUYOTH9eykyUYEKtsgt6Wcvvzc8kg8NP8ZpQWfUdpcXW0DoMmJeCRj8x4dUUa/rk5G7OPFmFXQhVMRXYU1jhRaW8IWXAYDh/BQZehRcIJ+/LF5NmfytyZ15bAod6G5lVXjNLiyigtrorR4dZJRjyxMAVvrM/CxH35WHOmDN+lWYVBgOZj1Neoub9hOHwIB12K1iSGrs8SQ5fOVOJA/JYETvdmcMhJsx8N1WL1YuHzd0tT8cFWCxYcL8EOfSXO5dShyOqCWkZoDIeP4aDLlda68OSC5A4vEAZCwf35m13JqhahEfEz1OMMHKMXZmiKr6G5zfh9BfgivgLH061ILLILubmoywmSF8Php4ZILrbjjimJnWfe7cTJvU+AomAzitD8IB69IrW4cbwB9880Cb+0d7/MEc6ch5JrhPm5oNqJartLOIGK4VrzkM1PTffTZRmOn0Th+zdHUmrEop1PlEltyq+kvuSnNlwj4OkZqRFuNk8sSMHf12chbl8+Pj9bLhw5qYeuczSIuR4ZRMhqSEM2X/moMRy+Z+KSK679sQxXRnfiAqESpVRBWZrn9IjUiqhN8oqmSM6XVqRj5A4LFh4vxjZd09ymuMaFGnvDRXgInIYmjwFPB24MxyWq7Pt/aGFt8oFC9OrMFXQVKLnPelPJG7o5JwABMzC2ycXmoTlm/HVdJqYcKMQXFypwyFwDbV6Tew0ZTigylCyM1OO0NlxjOHzPw2VXtDkahQWLfKR8phThBICSe20ennUdFi9M0OTQSdC8siJNWNIoyvMbU7WI7qR5IgW1UcwNgUNBa8O25arOsHJznFEkFmmpiF1afhAs/+dXO0GmTVpoY0CCxIugeW7TdbgGfaN1uGtaIp5dkor/2ZiNyd8UYN63xfj9ynSGw98Q0SQxocCGB+ckCfd0BiRIAGmjV6IsNDS3oVACtbWV6noOgo8mhBSLcVfLKMI2GkhtjcL1DQ6QVAkHAVLvbBSmyBsnJKjuicTKHxzKL9cOt8QZsfxkyWWDoaCdc7jXlCZ7Hx4oFB6xcjfK59WhkMHSTmQV/fX8ZOGu465z9F4VcFBFS60uEVNBE8FgESzXQ90gUtbO3yxIwRfny0WGG9XCQXb1tJJ6DPk0g9dAeM6l6AFJC6MUQk251PabqtsMIVBNz0FU0+LT2axaPLMoRZVWEe5pAt/TUPDadeMMeHN9Fk5n1rabM0BVcBAgtEJLtD8wO0l19nSGI7BwUKgAxdSM2G6BscDWchR12f+qg4PugHyA1p8tF1681EWy0rEM5HSAgs9+Od2E6QcLRd7my0ho5QNVwkH3UWJ1YsahQuG6LScYPh/e8FBszMMfmYWLCLm6ePpSLRw0QacM75HbLbhKhXHoDGznAEsWqeeWpGLThfIOb4ehWjiIfgIkscCGoeszQyoOncFRDo6wSMXqMWRtBg6Zq0HxKx19qRoOulm66VMZVrywPC0s4tAZHHlwCIzrxxvw7uZsaCx17Vqk2gNG9XDQzVEmd8qD9eg8M5t4w9xAQY6PtJ/lmD15IJd6Ja+QgIMEUF7nwqdnSnHvDNPl+xOGucKES29Dptp7Zpgw/9siWKocSrgQZUMGDrqbwmon5hwpxK1x7KQYLkBI90mmWvKRor1gquyeW6TaIyik4KAJenppPUbvzmMnxTDqLfuM0uKlFWnYk1Dl1cS7LUBCCg66SQLEkG/DWxuzxXbQ0pPFF0eRoT1ah+4qDOjxxf0H4zXIVPuPDVkiubev95QMOTgIEErifCLNildXpou9OnzVqPfPTsKUbwrw1oYs3DcrCb2kbaXD6CntK1n64jq0v2T0rjwkFtq8tki11WvQ5yEJB92YZMGiTIoUwqm4MSI0eGFFmlh4pD3Z9xqr8NHRIgxZm4lfTDeJENEuEfHKf8cXdQ31a0Q05eaizVVpC29/vUIWDhIYuQqsPVOG+2YmKVfaCA2eX54GyiZIL1pSstY3iiHcTn2l8Nl5dWWaMCOKrCmU+ibUlTQQ9xehAe2ZsuZ0qbBQ+gsMum5Iw0E3WNRswbptklGZsraAw71RyJWeQNTk1mGrpgLjvs4XmVOuHatvGtZR1o5AKFKI/SZlonlyQQp2GyrFyMC9DfzxPuThoCc85VOK2ZWHgWMN3itpO3C4Nwyt2FPvci6nFl9eKBe/+/SiFPQfrWcXewWwkqn2T2sy8EO6tc3gJPd28MX7kIeDhERuNT9ZsGK8DLP1EA73RiFQLJUOnM2uFaGYw7fl4rF5yWLbAZ6feN6b9ovWiS21dZY6n+X1dW+ntt6HBRx086SoJ9KteG1lmsgb2+FhjhdwSEKn3ouCtLLLHTiZZsWqUyV4Z3O2GDtTw4sk0Aqeqh2+F7X8VoQG1441iPkcrV/5KuG11C5yx7CBgwRBGcbJyvTUQi/CbBXA4d4ItA5De6GTu/3x1BosOl6Mv36eidsnG9Gb8gPz/KRp6BuhwaDJTSlzaJja2WBQm4UVHHTDFEVImdwHzzR1bA7gIzjcQaGkdTSRTyux42hyNeYdK8IfV2fg3yYkhLcDZYQGD84xY/OFcpTXugICRljCQTddVuvCnKNFIp7Y4yGJH+BwB4UsXuQ8mVpsx5HkGsw8XIjnl6WKZADh1JuQu/nLK9JwxFwjHmQdj8Jwl6qy92HXc0jiosWj6J15YkzrkfL5GQ6pXnQkUAhgU6FNDAPH780XJsyBsXqxJZpH9VXLvMKtnpRgjTbcIQMGzdEC/QpbOGjsn1RoF345fT2xYHUiHJJS0DiblKTU6oQx34Zt2kqROeNXs5JElvOQSS4RoUH/0Tpxb/RAIONJMLzCFg4SPj2hf8yuxYsrPIgiDAAc7gpCMNO+JcU1ThEaTDHR72zOwZ0fJootndUMyg3jDSBXEDJSBNMGoGENBykfPaUOJlXj8fkyPlgBhsMdFOpRyPJGoJgK7MLAQDsy3RyXgO5uwxSP51OBKhOhwV1TE/HZj2Uimww9AILpFfZwUGPQ0GXd2TLcM70dC1YQweGuQBIoFOgVb6nD4u9L8MonaSJlUfcgNgt3i9Dg4blmkF9atb1B+Kq531cwvGc4mluhytaA6YcKcdPENqIIgxQOdyWioTr1KEU1TrHgOetIkegRB9BEnnqHIIGFfKReXpGOYyk1or7u9xBM7xkOt9agTO7k4nHNGP3lPlgqgMPtVsTY3eZoEOsopIRx3xSIFfleAd5nsecoLf6xMQv6vDox53Ovc7C9ZzjcWoSGvBSY/5fPMtG75VYHKoPD7bYEKDR0rKhrwNGUGgzfZsHdUxPRtTPjTyI06BejR8zuPOEIGmzzC3d5Se8ZDkkSzUcChJwUn12ccmkeLBXD4X6LpJQUKZlX6cReUzWGrsvEzyYb0WVYvP+GXRHxuGl8AmYfLhIey4FwBXGXgafvGY42JLU/qRr3z3LbrDNE4HC/XXoQECzk1LfhfDle/iQd140xoIeP5yd3T0sUaZNo4q2mF8PRTmttvFCO26UgqRCEo+WtC1DK6rH0RAl+uyRVJKigZBLerqF0i9TikbnJ2GXwbVaQlvX21/8MRzuSpeHH7CNFuGF8go2AOJcAAAEaSURBVBhyuIfJtlMsJE45GhphKrILC96TC1PEinwPAsXDzCs08X9peZqwmgXZ8oXH7cNwyIiq1tGI97bk4KoYvcjHK8WQyxQLmdPUm1TWuXA6qw6xe/Lx2FwzrhmtQ89ITauew9TL9I9pSpejz7MFzKPWFw3AcHggRYpDf31VOl5dlf5TggUPioXcVwiUwhon9hirxAODUq8OGGMQwWPUo1CeWtpSbOQOi7BIqV0ADIeHLZhYYMekAwXCzcHDIiH9NQIlr8qJTfEVeGtjFn45PRGDZ5gw41ARSqy+SccZaAEyHB1oAUrFQ0rBr0slQDIhF3tLpTMoXM0vrZ33/zEc3suOS4a4BBiOEG9gvj3vJcBweC87LhniEvg/XSOD1BQ8LjEAAAAASUVORK5CYII=;" parent="Rn6bE_cG6sxgZQq8xu_I-24" vertex="1">
          <mxGeometry x="6" y="32.2" width="27.94" height="27.8" as="geometry" />
        </mxCell>
        <mxCell id="gZQ8tSqltW7CF0mfS30K-25" value="1. Validate skills" style="rounded=0;whiteSpace=wrap;html=1;" parent="Rn6bE_cG6sxgZQq8xu_I-24" vertex="1">
          <mxGeometry x="118.5" y="672.25" width="220" height="50" as="geometry" />
        </mxCell>
        <mxCell id="gZQ8tSqltW7CF0mfS30K-7" value="Open Al&lt;div&gt;Role: Search Profile&lt;/div&gt;" style="text;strokeColor=none;fillColor=none;align=left;verticalAlign=middle;spacingLeft=4;spacingRight=4;overflow=hidden;points=[[0,0.5],[1,0.5]];portConstraint=eastwest;rotatable=0;whiteSpace=wrap;html=1;" parent="Rn6bE_cG6sxgZQq8xu_I-24" vertex="1">
          <mxGeometry x="33.94" y="367.12" width="90" height="50" as="geometry" />
        </mxCell>
        <mxCell id="gZQ8tSqltW7CF0mfS30K-16" value="" style="shape=image;verticalLabelPosition=bottom;labelBackgroundColor=default;verticalAlign=top;aspect=fixed;imageAspect=0;image=https://manuss20.com/images/posts/Azure_Open_AI_Service.png;" parent="Rn6bE_cG6sxgZQq8xu_I-24" vertex="1">
          <mxGeometry x="50" y="663" width="68.5" height="68.5" as="geometry" />
        </mxCell>
        <mxCell id="gZQ8tSqltW7CF0mfS30K-17" value="Open Al&lt;div&gt;Role:&amp;nbsp;&lt;span style=&quot;background-color: rgb(255, 255, 255); text-align: center; text-wrap: nowrap;&quot;&gt;Interviewer&lt;/span&gt;&lt;span style=&quot;background-color: rgb(255, 255, 255); text-align: center; text-wrap: nowrap;&quot;&gt;&amp;nbsp;&lt;/span&gt;&lt;/div&gt;" style="text;strokeColor=none;fillColor=none;align=left;verticalAlign=middle;spacingLeft=4;spacingRight=4;overflow=hidden;points=[[0,0.5],[1,0.5]];portConstraint=eastwest;rotatable=0;whiteSpace=wrap;html=1;" parent="Rn6bE_cG6sxgZQq8xu_I-24" vertex="1">
          <mxGeometry x="50" y="722.25" width="110" height="50" as="geometry" />
        </mxCell>
        <mxCell id="gZQ8tSqltW7CF0mfS30K-27" value="&lt;div&gt;3. hard skills - tecnologies - Company values&amp;nbsp;&lt;/div&gt;" style="rounded=0;whiteSpace=wrap;html=1;" parent="Rn6bE_cG6sxgZQq8xu_I-24" vertex="1">
          <mxGeometry x="113.94" y="307.12" width="230" height="60" as="geometry" />
        </mxCell>
        <mxCell id="gZQ8tSqltW7CF0mfS30K-5" value="" style="shape=image;verticalLabelPosition=bottom;labelBackgroundColor=default;verticalAlign=top;aspect=fixed;imageAspect=0;image=https://manuss20.com/images/posts/Azure_Open_AI_Service.png;" parent="Rn6bE_cG6sxgZQq8xu_I-24" vertex="1">
          <mxGeometry x="33.94" y="302.87" width="68.5" height="68.5" as="geometry" />
        </mxCell>
        <mxCell id="xwG69pb6jENjyjtDq_wV-8" value="" style="shape=image;verticalLabelPosition=bottom;labelBackgroundColor=default;verticalAlign=top;aspect=fixed;imageAspect=0;image=https://manuss20.com/images/posts/Azure_Open_AI_Service.png;" vertex="1" parent="Rn6bE_cG6sxgZQq8xu_I-24">
          <mxGeometry x="33.940000000000055" y="80" width="68.5" height="68.5" as="geometry" />
        </mxCell>
        <mxCell id="xwG69pb6jENjyjtDq_wV-9" value="Process the data from Endava profiles" style="rounded=0;whiteSpace=wrap;html=1;" vertex="1" parent="Rn6bE_cG6sxgZQq8xu_I-24">
          <mxGeometry x="108.5" y="84.25" width="230" height="60" as="geometry" />
        </mxCell>
        <mxCell id="gZQ8tSqltW7CF0mfS30K-18" value="" style="endArrow=classic;html=1;rounded=0;entryX=1.113;entryY=0.583;entryDx=0;entryDy=0;entryPerimeter=0;exitX=0;exitY=0.5;exitDx=0;exitDy=0;" parent="1" source="gZQ8tSqltW7CF0mfS30K-16" target="gZQ8tSqltW7CF0mfS30K-1" edge="1">
          <mxGeometry width="50" height="50" relative="1" as="geometry">
            <mxPoint x="1236" y="403" as="sourcePoint" />
            <mxPoint x="1286" y="353" as="targetPoint" />
          </mxGeometry>
        </mxCell>
        <mxCell id="gZQ8tSqltW7CF0mfS30K-19" value="" style="endArrow=classic;startArrow=classic;html=1;rounded=0;" parent="1" source="gZQ8tSqltW7CF0mfS30K-2" edge="1">
          <mxGeometry width="50" height="50" relative="1" as="geometry">
            <mxPoint x="936" y="379" as="sourcePoint" />
            <mxPoint x="926" y="379" as="targetPoint" />
          </mxGeometry>
        </mxCell>
        <mxCell id="gZQ8tSqltW7CF0mfS30K-29" value="" style="endArrow=classic;html=1;rounded=0;exitX=-0.088;exitY=0.529;exitDx=0;exitDy=0;exitPerimeter=0;" parent="1" source="gZQ8tSqltW7CF0mfS30K-5" target="gZQ8tSqltW7CF0mfS30K-2" edge="1">
          <mxGeometry width="50" height="50" relative="1" as="geometry">
            <mxPoint x="1300" y="300" as="sourcePoint" />
            <mxPoint x="1146" y="260.75" as="targetPoint" />
          </mxGeometry>
        </mxCell>
        <mxCell id="gZQ8tSqltW7CF0mfS30K-38" style="edgeStyle=orthogonalEdgeStyle;rounded=0;orthogonalLoop=1;jettySize=auto;html=1;" parent="1" target="gZQ8tSqltW7CF0mfS30K-14" edge="1">
          <mxGeometry relative="1" as="geometry">
            <mxPoint x="1090" y="429" as="sourcePoint" />
          </mxGeometry>
        </mxCell>
        <mxCell id="gZQ8tSqltW7CF0mfS30K-43" value="" style="endArrow=classic;html=1;rounded=0;entryX=0.48;entryY=1;entryDx=0;entryDy=0;entryPerimeter=0;" parent="1" edge="1">
          <mxGeometry width="50" height="50" relative="1" as="geometry">
            <mxPoint x="1020" y="519" as="sourcePoint" />
            <mxPoint x="884.7572" y="442" as="targetPoint" />
            <Array as="points">
              <mxPoint x="885.25" y="518" />
            </Array>
          </mxGeometry>
        </mxCell>
        <mxCell id="xwG69pb6jENjyjtDq_wV-13" style="edgeStyle=orthogonalEdgeStyle;rounded=0;orthogonalLoop=1;jettySize=auto;html=1;entryX=0;entryY=0.75;entryDx=0;entryDy=0;" edge="1" parent="1" source="xwG69pb6jENjyjtDq_wV-11" target="Rn6bE_cG6sxgZQq8xu_I-1">
          <mxGeometry relative="1" as="geometry" />
        </mxCell>
      </root>
    </mxGraphModel>
  </diagram>
</mxfile>
